# This file uses centimeters as units for non-parametric coordinates.

mtllib PonticelloRinghiera.mtl
g default
v -886.723230 -290.431708 30.213569
v -820.112849 -290.431708 30.213569
v -886.723230 84.304984 30.213569
v -820.112849 84.304984 30.213569
v -886.723230 84.304984 -36.396827
v -820.112849 84.304984 -36.396827
v -886.723230 -290.431708 -36.396827
v -820.112849 -290.431708 -36.396827
v 815.775683 -270.044003 27.660595
v 882.386063 -270.044003 27.660595
v 815.775683 104.692667 27.660595
v 882.386063 104.692667 27.660595
v 815.775683 104.692667 -38.949786
v 882.386063 104.692667 -38.949786
v 815.775683 -270.044003 -38.949786
v 882.386063 -270.044003 -38.949786
v -868.611284 -8.650148 27.660595
v -517.598814 148.773632 27.660595
v -166.586280 235.660941 27.660595
v 184.426254 235.660941 27.660595
v 535.438851 148.773632 27.660595
v 886.451321 -8.650148 27.660595
v -868.611284 57.960217 27.660595
v -517.598814 215.384013 27.660595
v -166.586280 302.271385 27.660595
v 184.426254 302.271385 27.660595
v 535.438851 215.384013 27.660595
v 886.451321 57.960217 27.660595
v -868.611284 57.960217 -38.949786
v -517.598814 215.384013 -38.949786
v -166.586280 302.271385 -38.949786
v 184.426254 302.271385 -38.949786
v 535.438851 215.384013 -38.949786
v 886.451321 57.960217 -38.949786
v -868.611284 -8.650148 -38.949786
v -517.598814 148.773632 -38.949786
v -166.586280 235.660941 -38.949786
v 184.426254 235.660941 -38.949786
v 535.438851 148.773632 -38.949786
v 886.451321 -8.650148 -38.949786
v -47.748562 -1.889796 25.797291
v 18.861817 -1.889796 25.797291
v -47.748562 279.667042 25.797291
v 18.861817 279.667042 25.797291
v -47.748562 279.667042 -37.086514
v 18.861817 279.667042 -37.086514
v -47.748562 -1.889796 -37.086514
v 18.861817 -1.889796 -37.086514
v -868.611284 -294.315027 27.660595
v -517.598814 -136.891255 27.660595
v -166.586280 -50.003938 27.660595
v 184.426254 -50.003938 27.660595
v 535.438851 -136.891255 27.660595
v 886.451321 -294.315027 27.660595
v -868.611284 -227.704647 27.660595
v -517.598814 -70.280866 27.660595
v -166.586280 16.606458 27.660595
v 184.426254 16.606458 27.660595
v 535.438851 -70.280866 27.660595
v 886.451321 -227.704647 27.660595
v -868.611284 -227.704647 -38.949786
v -517.598814 -70.280866 -38.949786
v -166.586280 16.606458 -38.949786
v 184.426254 16.606458 -38.949786
v 535.438851 -70.280866 -38.949786
v 886.451321 -227.704647 -38.949786
v -868.611284 -294.315027 -38.949786
v -517.598814 -136.891255 -38.949786
v -166.586280 -50.003938 -38.949786
v 184.426254 -50.003938 -38.949786
v 535.438851 -136.891255 -38.949786
v 886.451321 -294.315027 -38.949786
vt 0.375000 0.000000
vt 0.625000 0.000000
vt 0.625000 0.250000
vt 0.375000 0.250000
vt 0.625000 0.500000
vt 0.375000 0.500000
vt 0.625000 0.750000
vt 0.375000 0.750000
vt 0.625000 1.000000
vt 0.375000 1.000000
vt 0.875000 0.000000
vt 0.875000 0.250000
vt 0.125000 0.000000
vt 0.125000 0.250000
vt 0.375000 0.000000
vt 0.625000 0.000000
vt 0.625000 0.250000
vt 0.375000 0.250000
vt 0.625000 0.500000
vt 0.375000 0.500000
vt 0.625000 0.750000
vt 0.375000 0.750000
vt 0.625000 1.000000
vt 0.375000 1.000000
vt 0.875000 0.000000
vt 0.875000 0.250000
vt 0.125000 0.000000
vt 0.125000 0.250000
vt 0.375000 0.000000
vt 0.425000 0.000000
vt 0.425000 0.250000
vt 0.375000 0.250000
vt 0.475000 0.000000
vt 0.475000 0.250000
vt 0.525000 0.000000
vt 0.525000 0.250000
vt 0.575000 0.000000
vt 0.575000 0.250000
vt 0.625000 0.000000
vt 0.625000 0.250000
vt 0.425000 0.500000
vt 0.375000 0.500000
vt 0.475000 0.500000
vt 0.525000 0.500000
vt 0.575000 0.500000
vt 0.625000 0.500000
vt 0.425000 0.750000
vt 0.375000 0.750000
vt 0.475000 0.750000
vt 0.525000 0.750000
vt 0.575000 0.750000
vt 0.625000 0.750000
vt 0.425000 1.000000
vt 0.375000 1.000000
vt 0.475000 1.000000
vt 0.525000 1.000000
vt 0.575000 1.000000
vt 0.625000 1.000000
vt 0.875000 0.000000
vt 0.875000 0.250000
vt 0.125000 0.000000
vt 0.125000 0.250000
vt 0.375000 0.000000
vt 0.625000 0.000000
vt 0.625000 0.250000
vt 0.375000 0.250000
vt 0.625000 0.500000
vt 0.375000 0.500000
vt 0.625000 0.750000
vt 0.375000 0.750000
vt 0.625000 1.000000
vt 0.375000 1.000000
vt 0.875000 0.000000
vt 0.875000 0.250000
vt 0.125000 0.000000
vt 0.125000 0.250000
vt 0.375000 0.000000
vt 0.425000 0.000000
vt 0.425000 0.250000
vt 0.375000 0.250000
vt 0.475000 0.000000
vt 0.475000 0.250000
vt 0.525000 0.000000
vt 0.525000 0.250000
vt 0.575000 0.000000
vt 0.575000 0.250000
vt 0.625000 0.000000
vt 0.625000 0.250000
vt 0.425000 0.500000
vt 0.375000 0.500000
vt 0.475000 0.500000
vt 0.525000 0.500000
vt 0.575000 0.500000
vt 0.625000 0.500000
vt 0.425000 0.750000
vt 0.375000 0.750000
vt 0.475000 0.750000
vt 0.525000 0.750000
vt 0.575000 0.750000
vt 0.625000 0.750000
vt 0.425000 1.000000
vt 0.375000 1.000000
vt 0.475000 1.000000
vt 0.525000 1.000000
vt 0.575000 1.000000
vt 0.625000 1.000000
vt 0.875000 0.000000
vt 0.875000 0.250000
vt 0.125000 0.000000
vt 0.125000 0.250000
vn 0.000000 0.000000 1.000000
vn 0.000000 0.000000 1.000000
vn 0.000000 0.000000 1.000000
vn 0.000000 0.000000 1.000000
vn 0.000000 1.000000 0.000000
vn 0.000000 1.000000 0.000000
vn 0.000000 1.000000 0.000000
vn 0.000000 1.000000 0.000000
vn 0.000000 0.000000 -1.000000
vn 0.000000 0.000000 -1.000000
vn 0.000000 0.000000 -1.000000
vn 0.000000 0.000000 -1.000000
vn 0.000000 -1.000000 0.000000
vn 0.000000 -1.000000 0.000000
vn 0.000000 -1.000000 0.000000
vn 0.000000 -1.000000 0.000000
vn 1.000000 0.000000 0.000000
vn 1.000000 0.000000 0.000000
vn 1.000000 0.000000 0.000000
vn 1.000000 0.000000 0.000000
vn -1.000000 0.000000 0.000000
vn -1.000000 0.000000 0.000000
vn -1.000000 0.000000 0.000000
vn -1.000000 0.000000 0.000000
vn 0.000000 0.000000 1.000000
vn 0.000000 0.000000 1.000000
vn 0.000000 0.000000 1.000000
vn 0.000000 0.000000 1.000000
vn 0.000000 1.000000 0.000000
vn 0.000000 1.000000 0.000000
vn 0.000000 1.000000 0.000000
vn 0.000000 1.000000 0.000000
vn 0.000000 0.000000 -1.000000
vn 0.000000 0.000000 -1.000000
vn 0.000000 0.000000 -1.000000
vn 0.000000 0.000000 -1.000000
vn 0.000000 -1.000000 0.000000
vn 0.000000 -1.000000 0.000000
vn 0.000000 -1.000000 0.000000
vn 0.000000 -1.000000 0.000000
vn 1.000000 0.000000 0.000000
vn 1.000000 0.000000 0.000000
vn 1.000000 0.000000 0.000000
vn 1.000000 0.000000 0.000000
vn -1.000000 0.000000 0.000000
vn -1.000000 0.000000 0.000000
vn -1.000000 0.000000 0.000000
vn -1.000000 0.000000 0.000000
vn 0.000000 0.000000 1.000000
vn 0.000000 0.000000 1.000000
vn 0.000000 0.000000 1.000000
vn 0.000000 0.000000 1.000000
vn 0.000000 0.000000 1.000000
vn 0.000000 0.000000 1.000000
vn 0.000000 0.000000 1.000000
vn 0.000000 0.000000 1.000000
vn 0.000000 0.000000 1.000000
vn 0.000000 0.000000 1.000000
vn 0.000000 0.000000 1.000000
vn 0.000000 0.000000 1.000000
vn 0.000000 0.000000 1.000000
vn 0.000000 0.000000 1.000000
vn 0.000000 0.000000 1.000000
vn 0.000000 0.000000 1.000000
vn 0.000000 0.000000 1.000000
vn 0.000000 0.000000 1.000000
vn 0.000000 0.000000 1.000000
vn 0.000000 0.000000 1.000000
vn -0.409215 0.912438 0.000000
vn -0.328675 0.944443 0.000000
vn -0.328675 0.944443 0.000000
vn -0.409215 0.912438 0.000000
vn -0.328675 0.944443 0.000000
vn -0.122830 0.992428 0.000000
vn -0.122830 0.992428 0.000000
vn -0.328675 0.944443 0.000000
vn -0.122830 0.992428 0.000000
vn 0.122830 0.992428 0.000000
vn 0.122830 0.992428 0.000000
vn -0.122830 0.992428 0.000000
vn 0.122830 0.992428 0.000000
vn 0.328675 0.944443 0.000000
vn 0.328675 0.944443 0.000000
vn 0.122830 0.992428 0.000000
vn 0.328675 0.944443 0.000000
vn 0.409215 0.912438 0.000000
vn 0.409215 0.912438 0.000000
vn 0.328675 0.944443 0.000000
vn 0.000000 0.000000 -1.000000
vn 0.000000 0.000000 -1.000000
vn 0.000000 0.000000 -1.000000
vn 0.000000 0.000000 -1.000000
vn 0.000000 0.000000 -1.000000
vn 0.000000 0.000000 -1.000000
vn 0.000000 0.000000 -1.000000
vn 0.000000 0.000000 -1.000000
vn 0.000000 0.000000 -1.000000
vn 0.000000 0.000000 -1.000000
vn 0.000000 0.000000 -1.000000
vn 0.000000 0.000000 -1.000000
vn 0.000000 0.000000 -1.000000
vn 0.000000 0.000000 -1.000000
vn 0.000000 0.000000 -1.000000
vn 0.000000 0.000000 -1.000000
vn 0.000000 0.000000 -1.000000
vn 0.000000 0.000000 -1.000000
vn 0.000000 0.000000 -1.000000
vn 0.000000 0.000000 -1.000000
vn 0.409215 -0.912438 0.000000
vn 0.328675 -0.944443 0.000000
vn 0.328675 -0.944443 0.000000
vn 0.409215 -0.912438 0.000000
vn 0.328675 -0.944443 0.000000
vn 0.122830 -0.992428 0.000000
vn 0.122830 -0.992428 0.000000
vn 0.328675 -0.944443 0.000000
vn 0.122830 -0.992428 0.000000
vn -0.122830 -0.992428 0.000000
vn -0.122830 -0.992428 0.000000
vn 0.122830 -0.992428 0.000000
vn -0.122830 -0.992428 0.000000
vn -0.328675 -0.944443 0.000000
vn -0.328675 -0.944443 0.000000
vn -0.122830 -0.992428 0.000000
vn -0.328675 -0.944443 0.000000
vn -0.409215 -0.912438 0.000000
vn -0.409215 -0.912438 0.000000
vn -0.328675 -0.944443 0.000000
vn 1.000000 0.000000 0.000000
vn 1.000000 0.000000 0.000000
vn 1.000000 0.000000 0.000000
vn 1.000000 0.000000 0.000000
vn -1.000000 0.000000 0.000000
vn -1.000000 0.000000 0.000000
vn -1.000000 0.000000 0.000000
vn -1.000000 0.000000 0.000000
vn 0.000000 0.000000 1.000000
vn 0.000000 0.000000 1.000000
vn 0.000000 0.000000 1.000000
vn 0.000000 0.000000 1.000000
vn 0.000000 1.000000 0.000000
vn 0.000000 1.000000 0.000000
vn 0.000000 1.000000 0.000000
vn 0.000000 1.000000 0.000000
vn 0.000000 0.000000 -1.000000
vn 0.000000 0.000000 -1.000000
vn 0.000000 0.000000 -1.000000
vn 0.000000 0.000000 -1.000000
vn 0.000000 -1.000000 0.000000
vn 0.000000 -1.000000 0.000000
vn 0.000000 -1.000000 0.000000
vn 0.000000 -1.000000 0.000000
vn 1.000000 0.000000 0.000000
vn 1.000000 0.000000 0.000000
vn 1.000000 0.000000 0.000000
vn 1.000000 0.000000 0.000000
vn -1.000000 0.000000 0.000000
vn -1.000000 0.000000 0.000000
vn -1.000000 0.000000 0.000000
vn -1.000000 0.000000 0.000000
vn 0.000000 0.000000 1.000000
vn 0.000000 0.000000 1.000000
vn 0.000000 0.000000 1.000000
vn 0.000000 0.000000 1.000000
vn 0.000000 0.000000 1.000000
vn 0.000000 0.000000 1.000000
vn 0.000000 0.000000 1.000000
vn 0.000000 0.000000 1.000000
vn 0.000000 0.000000 1.000000
vn 0.000000 0.000000 1.000000
vn 0.000000 0.000000 1.000000
vn 0.000000 0.000000 1.000000
vn 0.000000 0.000000 1.000000
vn 0.000000 0.000000 1.000000
vn 0.000000 0.000000 1.000000
vn 0.000000 0.000000 1.000000
vn 0.000000 0.000000 1.000000
vn 0.000000 0.000000 1.000000
vn 0.000000 0.000000 1.000000
vn 0.000000 0.000000 1.000000
vn -0.409215 0.912438 0.000000
vn -0.328675 0.944443 0.000000
vn -0.328675 0.944443 0.000000
vn -0.409215 0.912438 0.000000
vn -0.328675 0.944443 0.000000
vn -0.122830 0.992428 0.000000
vn -0.122830 0.992428 0.000000
vn -0.328675 0.944443 0.000000
vn -0.122830 0.992428 0.000000
vn 0.122830 0.992428 0.000000
vn 0.122830 0.992428 0.000000
vn -0.122830 0.992428 0.000000
vn 0.122830 0.992428 0.000000
vn 0.328675 0.944443 0.000000
vn 0.328675 0.944443 0.000000
vn 0.122830 0.992428 0.000000
vn 0.328675 0.944443 0.000000
vn 0.409215 0.912438 0.000000
vn 0.409215 0.912438 0.000000
vn 0.328675 0.944443 0.000000
vn 0.000000 0.000000 -1.000000
vn 0.000000 0.000000 -1.000000
vn 0.000000 0.000000 -1.000000
vn 0.000000 0.000000 -1.000000
vn 0.000000 0.000000 -1.000000
vn 0.000000 0.000000 -1.000000
vn 0.000000 0.000000 -1.000000
vn 0.000000 0.000000 -1.000000
vn 0.000000 0.000000 -1.000000
vn 0.000000 0.000000 -1.000000
vn 0.000000 0.000000 -1.000000
vn 0.000000 0.000000 -1.000000
vn 0.000000 0.000000 -1.000000
vn 0.000000 0.000000 -1.000000
vn 0.000000 0.000000 -1.000000
vn 0.000000 0.000000 -1.000000
vn 0.000000 0.000000 -1.000000
vn 0.000000 0.000000 -1.000000
vn 0.000000 0.000000 -1.000000
vn 0.000000 0.000000 -1.000000
vn 0.409215 -0.912438 0.000000
vn 0.328675 -0.944443 0.000000
vn 0.328675 -0.944443 0.000000
vn 0.409215 -0.912438 0.000000
vn 0.328675 -0.944443 0.000000
vn 0.122830 -0.992428 0.000000
vn 0.122830 -0.992428 0.000000
vn 0.328675 -0.944443 0.000000
vn 0.122830 -0.992428 0.000000
vn -0.122830 -0.992428 0.000000
vn -0.122830 -0.992428 0.000000
vn 0.122830 -0.992428 0.000000
vn -0.122830 -0.992428 0.000000
vn -0.328675 -0.944443 0.000000
vn -0.328675 -0.944443 0.000000
vn -0.122830 -0.992428 0.000000
vn -0.328675 -0.944443 0.000000
vn -0.409215 -0.912438 0.000000
vn -0.409215 -0.912438 0.000000
vn -0.328675 -0.944443 0.000000
vn 1.000000 0.000000 0.000000
vn 1.000000 0.000000 0.000000
vn 1.000000 0.000000 0.000000
vn 1.000000 0.000000 0.000000
vn -1.000000 0.000000 0.000000
vn -1.000000 0.000000 0.000000
vn -1.000000 0.000000 0.000000
vn -1.000000 0.000000 0.000000
s off
g polySurface3
usemtl initialShadingGroup1
f 1/1/1 2/2/2 4/3/3 3/4/4
f 3/4/5 4/3/6 6/5/7 5/6/8
f 5/6/9 6/5/10 8/7/11 7/8/12
f 7/8/13 8/7/14 2/9/15 1/10/16
f 2/2/17 8/11/18 6/12/19 4/3/20
f 7/13/21 1/1/22 3/4/23 5/14/24
f 9/15/25 10/16/26 12/17/27 11/18/28
f 11/18/29 12/17/30 14/19/31 13/20/32
f 13/20/33 14/19/34 16/21/35 15/22/36
f 15/22/37 16/21/38 10/23/39 9/24/40
f 10/16/41 16/25/42 14/26/43 12/17/44
f 15/27/45 9/15/46 11/18/47 13/28/48
f 17/29/49 18/30/50 24/31/51 23/32/52
f 18/30/53 19/33/54 25/34/55 24/31/56
f 19/33/57 20/35/58 26/36/59 25/34/60
f 20/35/61 21/37/62 27/38/63 26/36/64
f 21/37/65 22/39/66 28/40/67 27/38/68
f 23/32/69 24/31/70 30/41/71 29/42/72
f 24/31/73 25/34/74 31/43/75 30/41/76
f 25/34/77 26/36/78 32/44/79 31/43/80
f 26/36/81 27/38/82 33/45/83 32/44/84
f 27/38/85 28/40/86 34/46/87 33/45/88
f 29/42/89 30/41/90 36/47/91 35/48/92
f 30/41/93 31/43/94 37/49/95 36/47/96
f 31/43/97 32/44/98 38/50/99 37/49/100
f 32/44/101 33/45/102 39/51/103 38/50/104
f 33/45/105 34/46/106 40/52/107 39/51/108
f 35/48/109 36/47/110 18/53/111 17/54/112
f 36/47/113 37/49/114 19/55/115 18/53/116
f 37/49/117 38/50/118 20/56/119 19/55/120
f 38/50/121 39/51/122 21/57/123 20/56/124
f 39/51/125 40/52/126 22/58/127 21/57/128
f 22/39/129 40/59/130 34/60/131 28/40/132
f 35/61/133 17/29/134 23/32/135 29/62/136
f 41/63/137 42/64/138 44/65/139 43/66/140
f 43/66/141 44/65/142 46/67/143 45/68/144
f 45/68/145 46/67/146 48/69/147 47/70/148
f 47/70/149 48/69/150 42/71/151 41/72/152
f 42/64/153 48/73/154 46/74/155 44/65/156
f 47/75/157 41/63/158 43/66/159 45/76/160
f 49/77/161 50/78/162 56/79/163 55/80/164
f 50/78/165 51/81/166 57/82/167 56/79/168
f 51/81/169 52/83/170 58/84/171 57/82/172
f 52/83/173 53/85/174 59/86/175 58/84/176
f 53/85/177 54/87/178 60/88/179 59/86/180
f 55/80/181 56/79/182 62/89/183 61/90/184
f 56/79/185 57/82/186 63/91/187 62/89/188
f 57/82/189 58/84/190 64/92/191 63/91/192
f 58/84/193 59/86/194 65/93/195 64/92/196
f 59/86/197 60/88/198 66/94/199 65/93/200
f 61/90/201 62/89/202 68/95/203 67/96/204
f 62/89/205 63/91/206 69/97/207 68/95/208
f 63/91/209 64/92/210 70/98/211 69/97/212
f 64/92/213 65/93/214 71/99/215 70/98/216
f 65/93/217 66/94/218 72/100/219 71/99/220
f 67/96/221 68/95/222 50/101/223 49/102/224
f 68/95/225 69/97/226 51/103/227 50/101/228
f 69/97/229 70/98/230 52/104/231 51/103/232
f 70/98/233 71/99/234 53/105/235 52/104/236
f 71/99/237 72/100/238 54/106/239 53/105/240
f 54/87/241 72/107/242 66/108/243 60/88/244
f 67/109/245 49/77/246 55/80/247 61/110/248
